<?xml version="1.0" standalone="no"?>
<!DOCTYPE svg PUBLIC "-//W3C//DTD SVG 20010904//EN"
 "http://www.w3.org/TR/2001/REC-SVG-20010904/DTD/svg10.dtd">
<svg version="1.0" xmlns="http://www.w3.org/2000/svg"
 width="186.000000pt" height="186.000000pt" viewBox="0 0 186.000000 186.000000"
 preserveAspectRatio="xMidYMid meet">
<metadata>
Created by potrace 1.11, written by Peter Selinger 2001-2013
</metadata>
<g transform="translate(0.000000,186.000000) scale(0.100000,-0.100000)"
fill="#000000" stroke="none">
<path d="M777 1840 c-124 -22 -274 -83 -377 -153 -66 -45 -176 -153 -225 -222
-59 -82 -108 -182 -141 -290 -26 -82 -28 -103 -28 -245 -1 -200 25 -299 118
-463 l44 -77 -85 -166 c-90 -174 -97 -208 -50 -219 14 -4 85 20 204 68 l181
74 49 -28 c68 -41 197 -85 300 -105 112 -21 285 -15 396 15 341 90 602 363
678 706 25 112 20 321 -10 424 -49 166 -118 289 -230 404 -119 124 -273 215
-436 258 -89 24 -305 34 -388 19z m388 -115 c347 -101 589 -410 600 -765 2
-58 -1 -131 -6 -162 -62 -375 -358 -656 -737 -701 -168 -20 -376 23 -519 107
-34 20 -70 36 -80 36 -11 0 -75 -22 -143 -50 -68 -27 -125 -48 -127 -46 -3 2
18 48 46 103 79 154 77 148 38 208 -270 405 -151 936 265 1187 189 114 447
147 663 83z"/>
<path d="M875 1583 c-111 -20 -186 -56 -254 -125 -88 -88 -132 -192 -132 -313
0 -92 22 -160 91 -274 60 -102 80 -153 80 -208 0 -20 8 -41 20 -53 19 -19 33
-20 248 -20 270 0 266 -1 275 89 5 64 25 109 95 222 52 84 75 164 74 254 -3
227 -186 416 -416 428 -33 2 -70 2 -81 0z m123 -98 c143 -19 267 -158 280
-311 7 -86 -10 -143 -72 -249 -56 -96 -79 -149 -90 -205 l-6 -35 -174 0 c-96
0 -178 3 -181 7 -4 3 -11 25 -16 48 -12 52 -42 117 -95 203 -51 83 -68 148
-61 233 9 121 86 232 192 280 57 27 128 43 160 38 11 -1 39 -5 63 -9z"/>
<path d="M697 512 c-21 -23 -12 -61 17 -67 11 -3 115 -4 230 -3 197 3 209 4
222 23 12 18 11 24 -2 43 -15 22 -20 22 -233 22 -197 0 -219 -2 -234 -18z"/>
<path d="M812 352 c-13 -2 -28 -15 -35 -29 -10 -22 -8 -28 10 -43 18 -15 43
-18 143 -18 107 -1 124 2 141 19 23 23 23 29 5 54 -11 16 -28 19 -127 19 -63
1 -124 0 -137 -2z"/>
</g>
</svg>
